<svg xmlns="http://www.w3.org/2000/svg" xmlns:xlink="http://www.w3.org/1999/xlink" width="500" zoomAndPan="magnify" viewBox="0 0 375 374.999991" height="500" preserveAspectRatio="xMidYMid meet" version="1.0"><defs><g/><clipPath id="f7d9014681"><path d="M 97.984375 91.023438 L 282.484375 91.023438 L 282.484375 275.523438 L 97.984375 275.523438 Z M 97.984375 91.023438 " clip-rule="nonzero"/></clipPath></defs><g clip-path="url(#f7d9014681)"><path fill="#f3f0ec" d="M 190.234375 91.023438 C 139.289062 91.023438 97.984375 132.324219 97.984375 183.273438 C 97.984375 234.222656 139.289062 275.523438 190.234375 275.523438 C 241.183594 275.523438 282.484375 234.222656 282.484375 183.273438 C 282.484375 132.324219 241.183594 91.023438 190.234375 91.023438 " fill-opacity="1" fill-rule="nonzero"/></g><g fill="#b08047" fill-opacity="1"><g transform="translate(156.950326, 151.65059)"><g><path d="M 75.785156 -70.242188 C 75.066406 -70.601562 74.273438 -70.316406 73.914062 -69.667969 C 73.121094 -68.15625 72.113281 -66.210938 70.890625 -63.765625 C 64.699219 -51.386719 53.042969 -28.429688 41.597656 -8.707031 C 35.265625 2.230469 29.867188 10.652344 25.40625 16.410156 C 18.566406 25.332031 15.90625 25.550781 15.1875 25.40625 C 14.683594 25.261719 13.027344 24.253906 13.171875 16.335938 C 13.386719 2.375 22.957031 -36.417969 27.0625 -53.042969 C 27.707031 -55.5625 28.210938 -57.648438 28.570312 -59.160156 C 30.226562 -66.210938 29.941406 -70.316406 27.492188 -71.898438 C 26.195312 -72.691406 23.75 -73.050781 19.648438 -69.8125 C 12.308594 -64.125 0.792969 -47.429688 4.175781 -37.425781 C 5.183594 -34.402344 8.132812 -30.730469 16.191406 -30.585938 C 16.984375 -30.585938 17.632812 -31.164062 17.632812 -31.953125 C 17.632812 -32.746094 16.984375 -33.320312 16.265625 -33.394531 C 11.082031 -33.464844 7.84375 -35.121094 6.765625 -38.289062 C 4.175781 -46.203125 13.675781 -61.679688 21.375 -67.652344 C 23.894531 -69.59375 25.476562 -69.882812 26.054688 -69.523438 C 26.195312 -69.449219 27.851562 -68.082031 25.910156 -59.808594 C 25.550781 -58.296875 25.046875 -56.207031 24.398438 -53.691406 C 19.9375 -35.625 10.578125 2.015625 10.363281 16.335938 C 10.363281 20.871094 10.722656 27.132812 14.539062 28.066406 C 14.898438 28.140625 15.1875 28.210938 15.546875 28.210938 C 19.433594 28.210938 26.484375 22.886719 44.046875 -7.339844 C 55.488281 -27.0625 67.148438 -50.089844 73.410156 -62.542969 C 74.632812 -64.917969 75.640625 -66.933594 76.359375 -68.371094 C 76.71875 -69.089844 76.433594 -69.882812 75.785156 -70.242188 Z M 75.785156 -70.242188 "/></g></g></g><g fill="#b08047" fill-opacity="1"><g transform="translate(154.360482, 252.150583)"><g><path d="M 72.546875 17.488281 C 71.96875 16.984375 71.105469 17.058594 70.601562 17.703125 C 68.515625 20.222656 66.5 21.445312 64.484375 21.375 C 59.589844 21.230469 54.195312 13.601562 48.4375 5.613281 C 44.332031 -0.214844 39.800781 -6.621094 34.617188 -11.515625 C 38.503906 -12.8125 42.316406 -14.683594 45.988281 -17.199219 C 52.824219 -21.878906 58.945312 -28.570312 63.332031 -35.984375 C 69.953125 -47.285156 71.464844 -58.511719 67.292969 -65.277344 C 65.0625 -68.945312 60.09375 -73.121094 49.15625 -72.328125 C 32.601562 -71.179688 13.386719 -60.3125 6.476562 -48.074219 C 2.949219 -41.957031 2.664062 -35.769531 5.46875 -30.082031 C 5.828125 -29.4375 6.621094 -29.148438 7.339844 -29.507812 C 7.988281 -29.796875 8.277344 -30.660156 7.917969 -31.378906 C 5.46875 -36.199219 5.828125 -41.382812 8.851562 -46.707031 C 15.328125 -58.007812 33.824219 -68.515625 49.371094 -69.59375 C 56.929688 -70.097656 62.253906 -68.15625 64.917969 -63.835938 C 68.585938 -57.9375 67.074219 -47.789062 60.957031 -37.351562 C 52.753906 -23.535156 41.742188 -16.410156 32.097656 -13.675781 C 30.945312 -14.609375 29.796875 -15.472656 28.570312 -16.191406 C 27.347656 -16.984375 26.125 -17.632812 24.902344 -18.207031 C 25.621094 -20.941406 26.269531 -23.605469 26.84375 -26.125 C 30.082031 -39.078125 33.035156 -51.316406 34.691406 -58.726562 C 34.832031 -59.445312 34.402344 -60.167969 33.609375 -60.382812 C 32.890625 -60.527344 32.171875 -60.023438 32.027344 -59.304688 C 30.371094 -51.890625 27.347656 -39.726562 24.183594 -26.773438 C 23.535156 -24.183594 22.957031 -21.664062 22.3125 -19.289062 C 18.207031 -20.800781 14.824219 -20.800781 12.738281 -19.214844 C 11.441406 -18.136719 10.9375 -16.554688 11.441406 -14.96875 C 12.164062 -12.8125 14.753906 -10.4375 20.007812 -9.789062 C 8.421875 38.070312 8.636719 41.09375 10.867188 41.886719 C 11.082031 41.957031 11.300781 41.957031 11.441406 41.957031 C 12.8125 41.957031 13.890625 40.085938 15.761719 35.984375 C 16.050781 35.335938 15.761719 34.472656 15.042969 34.1875 C 14.320312 33.898438 13.53125 34.1875 13.171875 34.90625 C 13.027344 35.265625 12.8125 35.695312 12.667969 36.058594 C 13.890625 27.78125 18.425781 8.421875 22.816406 -9.644531 C 25.691406 -9.570312 28.570312 -9.933594 31.523438 -10.578125 C 36.992188 -5.828125 41.816406 1.007812 46.203125 7.195312 C 52.609375 16.191406 58.078125 23.964844 64.414062 24.183594 C 64.484375 24.183594 64.558594 24.183594 64.628906 24.183594 C 67.507812 24.183594 70.171875 22.597656 72.761719 19.433594 C 73.265625 18.855469 73.121094 17.992188 72.546875 17.488281 Z M 14.105469 -15.832031 C 13.960938 -16.335938 14.035156 -16.695312 14.464844 -16.984375 C 15.042969 -17.488281 15.832031 -17.703125 16.769531 -17.703125 C 18.207031 -17.703125 19.9375 -17.199219 21.664062 -16.554688 C 21.304688 -15.1875 21.015625 -13.816406 20.65625 -12.523438 C 16.769531 -12.953125 14.539062 -14.464844 14.105469 -15.832031 Z M 23.535156 -12.378906 C 23.75 -13.386719 23.964844 -14.394531 24.253906 -15.402344 C 25.332031 -14.898438 26.339844 -14.320312 27.132812 -13.816406 C 27.636719 -13.53125 28.140625 -13.242188 28.570312 -12.882812 C 26.84375 -12.59375 25.117188 -12.449219 23.535156 -12.378906 Z M 23.535156 -12.378906 "/></g></g></g><g fill="#414141" fill-opacity="1"><g transform="translate(237.880349, 291.647522)"><g><path d="M 5.195312 -2.703125 L -5.695312 -12.304688 C -5.898438 -12.480469 -6.035156 -12.546875 -6.09375 -12.515625 L -6.109375 -12.503906 L -6.21875 -12.6875 L -4.839844 -13.5 L -4.734375 -13.316406 L -4.75 -13.308594 C -4.789062 -13.285156 -4.734375 -13.195312 -4.609375 -13.070312 C -4.570312 -13.042969 -4.519531 -13 -4.488281 -12.945312 C -4.453125 -12.886719 -4.390625 -12.824219 -4.3125 -12.773438 C -4.167969 -12.660156 -3.996094 -12.492188 -3.789062 -12.265625 L 4.714844 -4.476562 L 1.238281 -17.347656 L 1.496094 -17.5 L 11.457031 -8.589844 L 8.574219 -19.582031 L 8.554688 -19.570312 C 8.515625 -19.71875 8.46875 -19.839844 8.433594 -19.945312 C 8.394531 -20.046875 8.359375 -20.148438 8.351562 -20.246094 C 8.328125 -20.328125 8.3125 -20.394531 8.289062 -20.480469 C 8.257812 -20.535156 8.242188 -20.601562 8.238281 -20.648438 C 8.175781 -20.835938 8.105469 -20.917969 8.050781 -20.882812 L 8.011719 -20.863281 L 7.902344 -21.046875 L 8.546875 -21.425781 L 8.65625 -21.242188 L 8.636719 -21.230469 C 8.582031 -21.199219 8.582031 -21.074219 8.59375 -20.882812 C 8.609375 -20.816406 8.636719 -20.6875 8.691406 -20.46875 C 8.699219 -20.375 8.734375 -20.273438 8.75 -20.160156 C 8.78125 -20.027344 8.828125 -19.90625 8.867188 -19.753906 L 8.847656 -19.746094 L 12.210938 -6.855469 L 11.953125 -6.703125 L 2.03125 -15.511719 L 5.453125 -2.855469 Z M 5.195312 -2.703125 "/></g></g></g><g fill="#414141" fill-opacity="1"><g transform="translate(262.266271, 275.274379)"><g><path d="M -3.125 -6.5625 L -2.890625 -6.316406 L -2.773438 -6.191406 C -2.730469 -6.144531 -2.699219 -6.082031 -2.65625 -6.035156 C -2.613281 -5.988281 -2.566406 -5.945312 -2.539062 -5.914062 C -2.496094 -5.867188 -2.449219 -5.820312 -2.40625 -5.773438 C -2.347656 -5.710938 -2.320312 -5.648438 -2.277344 -5.601562 C -2.230469 -5.558594 -2.1875 -5.511719 -2.128906 -5.449219 C -1.835938 -5.136719 -1.511719 -4.796875 -1.175781 -4.472656 C -0.835938 -4.144531 -0.453125 -3.863281 -0.0664062 -3.640625 C 0.320312 -3.417969 0.722656 -3.269531 1.144531 -3.199219 C 1.566406 -3.128906 2.019531 -3.203125 2.496094 -3.417969 C 3.03125 -3.691406 3.523438 -4.070312 4.003906 -4.523438 L 4.484375 -4.980469 C 4.5625 -5.050781 4.625 -5.140625 4.6875 -5.199219 L 4.890625 -5.390625 C 4.953125 -5.449219 4.984375 -5.507812 5.046875 -5.566406 L 5.214844 -5.726562 C 5.324219 -5.832031 5.449219 -5.949219 5.542969 -6.097656 C 5.636719 -6.246094 5.714844 -6.378906 5.796875 -6.542969 C 5.878906 -6.738281 5.910156 -6.886719 5.914062 -6.976562 L 6.0625 -6.941406 C 6.046875 -6.867188 6.03125 -6.792969 6.027344 -6.734375 C 6.027344 -6.671875 5.996094 -6.613281 5.976562 -6.539062 C 5.957031 -6.3125 5.890625 -6.101562 5.792969 -5.894531 C 5.699219 -5.683594 5.601562 -5.507812 5.476562 -5.328125 C 5.429688 -5.253906 5.382812 -5.210938 5.320312 -5.152344 C 5.257812 -5.09375 5.210938 -5.019531 5.164062 -4.945312 C 5.117188 -4.871094 5.054688 -4.78125 4.992188 -4.722656 C 4.929688 -4.664062 4.867188 -4.574219 4.804688 -4.488281 C 4.554688 -4.191406 4.210938 -3.839844 3.792969 -3.441406 C 3.578125 -3.238281 3.375 -3.046875 3.144531 -2.855469 C 2.910156 -2.667969 2.664062 -2.492188 2.40625 -2.363281 C 2.160156 -2.21875 1.898438 -2.121094 1.613281 -2.054688 C 1.335938 -1.972656 1.050781 -1.964844 0.734375 -2.019531 C 0.601562 -2.035156 0.480469 -2.070312 0.375 -2.117188 C 0.253906 -2.152344 0.121094 -2.199219 -0.0117188 -2.25 C -0.148438 -2.296875 -0.28125 -2.378906 -0.414062 -2.457031 C -0.550781 -2.535156 -0.683594 -2.617188 -0.832031 -2.710938 C -1.394531 -3.117188 -1.996094 -3.664062 -2.671875 -4.375 L -3.214844 -4.949219 C -3.375 -5.121094 -3.539062 -5.289062 -3.683594 -5.507812 C -4.238281 -6.214844 -4.628906 -6.816406 -4.855469 -7.367188 C -5.082031 -7.914062 -5.15625 -8.429688 -5.097656 -8.925781 C -5.023438 -9.40625 -4.796875 -9.914062 -4.4375 -10.402344 C -4.078125 -10.890625 -3.578125 -11.453125 -2.957031 -12.039062 L -2.804688 -12.183594 C -2.757812 -12.230469 -2.695312 -12.257812 -2.632812 -12.316406 C -2.386719 -12.492188 -2.15625 -12.648438 -1.957031 -12.75 C -1.542969 -12.964844 -1.105469 -13.058594 -0.679688 -13.046875 C -0.246094 -13.019531 0.160156 -12.871094 0.542969 -12.589844 C 0.664062 -12.527344 0.765625 -12.449219 0.871094 -12.371094 C 0.972656 -12.261719 1.089844 -12.167969 1.210938 -12.074219 C 1.34375 -11.964844 1.460938 -11.871094 1.578125 -11.746094 L 1.945312 -11.359375 Z M -4.125 -8.113281 C -3.921875 -7.71875 -3.621094 -7.242188 -3.242188 -6.71875 L 0.953125 -10.949219 L 0.59375 -10.613281 C 0.734375 -10.742188 0.8125 -10.847656 0.800781 -10.953125 C 0.804688 -11.042969 0.746094 -11.164062 0.597656 -11.320312 C 0.496094 -11.429688 0.363281 -11.539062 0.230469 -11.679688 C 0.101562 -11.816406 -0.046875 -11.941406 -0.226562 -12.066406 C -0.386719 -12.179688 -0.566406 -12.273438 -0.730469 -12.355469 C -0.910156 -12.417969 -1.058594 -12.453125 -1.242188 -12.457031 C -1.40625 -12.476562 -1.574219 -12.4375 -1.757812 -12.382812 C -1.9375 -12.328125 -2.121094 -12.242188 -2.292969 -12.140625 C -2.460938 -12.039062 -2.613281 -11.921875 -2.753906 -11.789062 C -2.910156 -11.644531 -3.046875 -11.542969 -3.15625 -11.441406 L -3.433594 -11.175781 L -3.574219 -11.042969 C -3.605469 -11.015625 -3.636719 -10.953125 -3.683594 -10.910156 C -3.839844 -10.703125 -3.964844 -10.527344 -4.046875 -10.363281 C -4.28125 -9.992188 -4.382812 -9.632812 -4.363281 -9.238281 C -4.34375 -8.847656 -4.28125 -8.464844 -4.125 -8.113281 Z M -4.125 -8.113281 "/></g></g></g><g fill="#414141" fill-opacity="1"><g transform="translate(276.749036, 260.264153)"><g><path d="M -11.761719 -9.488281 L -11.5 -10.324219 L -11.375 -10.496094 L -6.835938 -7.234375 C -6.792969 -7.515625 -6.738281 -7.738281 -6.6875 -7.914062 C -6.660156 -8.027344 -6.617188 -8.125 -6.601562 -8.21875 C -6.585938 -8.3125 -6.554688 -8.394531 -6.539062 -8.488281 C -6.523438 -8.582031 -6.476562 -8.683594 -6.445312 -8.765625 C -6.414062 -8.847656 -6.394531 -8.910156 -6.378906 -9.003906 C -6.332031 -9.179688 -6.277344 -9.328125 -6.21875 -9.445312 C -6.1875 -9.523438 -6.167969 -9.589844 -6.148438 -9.652344 C -6.109375 -9.707031 -6.089844 -9.769531 -6.039062 -9.839844 L -5.867188 -10.1875 C -5.753906 -10.421875 -5.621094 -10.640625 -5.457031 -10.867188 L -5.085938 -11.386719 C -4.972656 -11.542969 -4.84375 -11.6875 -4.714844 -11.828125 C -4.453125 -12.117188 -4.1875 -12.34375 -3.96875 -12.503906 C -3.480469 -12.886719 -2.960938 -13.09375 -2.417969 -13.121094 C -2.132812 -13.152344 -1.804688 -13.128906 -1.488281 -13.058594 C -1.15625 -12.976562 -0.863281 -12.871094 -0.613281 -12.742188 C -0.015625 -12.472656 0.742188 -12.03125 1.660156 -11.371094 C 1.9375 -11.171875 2.238281 -10.929688 2.550781 -10.707031 C 2.847656 -10.464844 3.136719 -10.207031 3.410156 -9.929688 C 3.671875 -9.636719 3.902344 -9.335938 4.105469 -9.035156 C 4.296875 -8.714844 4.425781 -8.382812 4.484375 -8.027344 C 4.5625 -7.65625 4.570312 -7.304688 4.507812 -6.957031 C 4.441406 -6.613281 4.328125 -6.273438 4.183594 -5.925781 C 4.042969 -5.582031 3.867188 -5.265625 3.671875 -4.957031 C 3.464844 -4.632812 3.265625 -4.355469 3.078125 -4.09375 C 2.355469 -3.089844 1.71875 -2.496094 1.140625 -2.28125 C 1.097656 -2.257812 1.042969 -2.21875 0.996094 -2.148438 C 0.933594 -2.0625 0.878906 -2.023438 0.851562 -1.988281 C 0.808594 -1.96875 0.742188 -1.910156 0.695312 -1.839844 L 0.53125 -1.617188 C 0.40625 -1.441406 0.355469 -1.296875 0.367188 -1.207031 C 0.386719 -1.085938 0.441406 -0.945312 0.546875 -0.761719 L 0.472656 -0.660156 L -10.855469 -8.808594 C -10.914062 -8.875 -10.984375 -8.925781 -11.03125 -8.933594 C -11.152344 -9.019531 -11.234375 -9.054688 -11.265625 -9.078125 C -11.355469 -9.140625 -11.417969 -9.160156 -11.449219 -9.15625 C -11.449219 -9.15625 -11.496094 -9.164062 -11.558594 -9.183594 C -11.59375 -9.207031 -11.660156 -9.230469 -11.71875 -9.21875 L -11.824219 -9.292969 L -11.773438 -9.46875 Z M -6.699219 -7.132812 L -1.207031 -3.183594 C -1 -3.03125 -0.808594 -2.894531 -0.609375 -2.804688 C -0.425781 -2.699219 -0.246094 -2.621094 -0.0976562 -2.566406 C -0.00390625 -2.554688 0.078125 -2.519531 0.15625 -2.519531 C 0.238281 -2.484375 0.3125 -2.480469 0.390625 -2.480469 C 0.484375 -2.464844 0.5625 -2.460938 0.621094 -2.472656 L 0.871094 -2.527344 C 1.285156 -2.625 1.660156 -2.855469 1.980469 -3.226562 C 2.320312 -3.589844 2.597656 -3.941406 2.835938 -4.269531 C 3.058594 -4.582031 3.269531 -4.875 3.421875 -5.160156 C 3.5625 -5.429688 3.691406 -5.679688 3.769531 -5.9375 C 3.917969 -6.433594 3.953125 -6.882812 3.871094 -7.285156 C 3.78125 -7.664062 3.609375 -8.050781 3.367188 -8.410156 C 3.128906 -8.738281 2.832031 -9.054688 2.496094 -9.351562 C 2.144531 -9.632812 1.792969 -9.910156 1.410156 -10.183594 L 0.789062 -10.632812 C 0.597656 -10.769531 0.394531 -10.890625 0.207031 -10.996094 C 0.0234375 -11.105469 -0.164062 -11.210938 -0.347656 -11.320312 C -0.515625 -11.414062 -0.6875 -11.507812 -0.847656 -11.574219 C -1.363281 -11.8125 -1.84375 -11.945312 -2.292969 -11.980469 C -2.722656 -12 -3.140625 -11.933594 -3.511719 -11.78125 C -3.886719 -11.628906 -4.242188 -11.386719 -4.574219 -11.074219 C -4.917969 -10.742188 -5.238281 -10.367188 -5.5625 -9.917969 C -5.863281 -9.5 -6.074219 -9.101562 -6.226562 -8.738281 C -6.265625 -8.609375 -6.3125 -8.511719 -6.359375 -8.410156 C -6.414062 -8.296875 -6.441406 -8.183594 -6.484375 -8.054688 C -6.523438 -7.925781 -6.558594 -7.765625 -6.582031 -7.625 C -6.617188 -7.46875 -6.652344 -7.308594 -6.699219 -7.132812 Z M -6.699219 -7.132812 "/></g></g></g><g fill="#414141" fill-opacity="1"><g transform="translate(288.649511, 241.883329)"><g><path d="M -0.449219 -1.699219 C -0.382812 -1.738281 -0.320312 -1.777344 -0.253906 -1.816406 L -0.0625 -1.917969 C 0 -1.957031 0.0664062 -1.996094 0.125 -2.015625 C 0.179688 -2.039062 0.226562 -2.085938 0.292969 -2.125 C 0.460938 -2.28125 0.621094 -2.421875 0.769531 -2.585938 C 0.929688 -2.722656 1.050781 -2.878906 1.179688 -3.054688 C 1.242188 -3.140625 1.289062 -3.238281 1.335938 -3.335938 C 1.378906 -3.429688 1.445312 -3.519531 1.519531 -3.625 C 1.59375 -3.730469 1.667969 -3.839844 1.722656 -3.953125 C 1.777344 -4.070312 1.832031 -4.1875 1.894531 -4.320312 C 1.949219 -4.4375 1.996094 -4.535156 2.039062 -4.628906 C 2.074219 -4.707031 2.101562 -4.8125 2.136719 -4.890625 C 2.253906 -5.238281 2.304688 -5.589844 2.285156 -5.953125 C 2.265625 -6.316406 2.097656 -6.609375 1.75 -6.867188 C 1.679688 -6.921875 1.632812 -6.96875 1.5625 -7.023438 C 1.484375 -7.0625 1.417969 -7.117188 1.320312 -7.164062 C 1.226562 -7.207031 1.136719 -7.273438 1.042969 -7.316406 L 0.75 -7.453125 C 0.5 -7.574219 0.25 -7.644531 0.0195312 -7.65625 C -0.0546875 -7.644531 -0.121094 -7.652344 -0.160156 -7.671875 C -0.207031 -7.671875 -0.273438 -7.679688 -0.332031 -7.660156 C -0.4375 -7.636719 -0.570312 -7.605469 -0.703125 -7.527344 C -0.816406 -7.484375 -0.964844 -7.414062 -1.097656 -7.335938 C -1.230469 -7.253906 -1.371094 -7.15625 -1.519531 -7.039062 C -1.859375 -6.820312 -2.207031 -6.535156 -2.570312 -6.164062 C -2.699219 -6.039062 -2.8125 -5.949219 -2.90625 -5.851562 C -3 -5.753906 -3.109375 -5.664062 -3.222656 -5.578125 L -3.824219 -5.105469 C -3.925781 -5.035156 -4.019531 -4.984375 -4.097656 -4.925781 C -4.171875 -4.867188 -4.238281 -4.828125 -4.351562 -4.785156 C -4.445312 -4.734375 -4.53125 -4.707031 -4.617188 -4.675781 L -4.859375 -4.554688 C -5.210938 -4.460938 -5.515625 -4.414062 -5.773438 -4.417969 C -5.871094 -4.417969 -5.9375 -4.425781 -6.015625 -4.460938 C -6.089844 -4.496094 -6.15625 -4.503906 -6.246094 -4.523438 C -6.332031 -4.539062 -6.398438 -4.546875 -6.476562 -4.582031 C -6.550781 -4.621094 -6.628906 -4.65625 -6.707031 -4.691406 C -6.824219 -4.746094 -6.9375 -4.800781 -7.054688 -4.855469 C -7.152344 -4.902344 -7.238281 -4.964844 -7.34375 -5.039062 C -7.433594 -5.105469 -7.519531 -5.171875 -7.597656 -5.207031 C -7.675781 -5.242188 -7.761719 -5.308594 -7.820312 -5.382812 C -8.085938 -5.625 -8.261719 -5.898438 -8.355469 -6.199219 C -8.441406 -6.617188 -8.421875 -7.058594 -8.289062 -7.492188 C -8.148438 -7.894531 -7.996094 -8.320312 -7.8125 -8.707031 L -7.683594 -8.976562 C -7.648438 -9.050781 -7.585938 -9.140625 -7.546875 -9.21875 C -7.464844 -9.390625 -7.34375 -9.546875 -7.1875 -9.683594 C -7.101562 -9.761719 -7.039062 -9.851562 -6.964844 -9.957031 C -6.871094 -10.054688 -6.777344 -10.152344 -6.675781 -10.269531 C -6.480469 -10.484375 -6.226562 -10.71875 -5.910156 -10.992188 L -5.425781 -10.765625 L -5.5 -10.613281 C -5.726562 -10.53125 -5.914062 -10.429688 -6.074219 -10.292969 C -6.429688 -9.988281 -6.757812 -9.644531 -7.054688 -9.316406 C -7.082031 -9.304688 -7.136719 -9.238281 -7.238281 -9.121094 C -7.304688 -9.078125 -7.351562 -9.03125 -7.378906 -8.972656 C -7.398438 -8.933594 -7.433594 -8.90625 -7.472656 -8.828125 C -7.488281 -8.789062 -7.546875 -8.722656 -7.601562 -8.605469 L -7.738281 -8.316406 C -7.773438 -8.238281 -7.800781 -8.132812 -7.835938 -8.054688 C -7.925781 -7.863281 -7.980469 -7.652344 -8 -7.402344 C -8.035156 -7.132812 -8.039062 -6.925781 -7.976562 -6.753906 C -7.921875 -6.46875 -7.753906 -6.222656 -7.464844 -6.039062 C -7.171875 -5.855469 -6.910156 -5.710938 -6.679688 -5.601562 C -6.601562 -5.5625 -6.546875 -5.535156 -6.507812 -5.519531 C -6.449219 -5.492188 -6.382812 -5.484375 -6.316406 -5.476562 C -6.226562 -5.457031 -6.160156 -5.449219 -6.121094 -5.433594 C -6.066406 -5.40625 -5.996094 -5.398438 -5.921875 -5.40625 C -5.777344 -5.410156 -5.65625 -5.425781 -5.523438 -5.457031 C -5.398438 -5.46875 -5.265625 -5.5 -5.113281 -5.570312 C -4.820312 -5.691406 -4.511719 -5.898438 -4.152344 -6.15625 C -4.070312 -6.234375 -3.984375 -6.3125 -3.902344 -6.390625 C -3.816406 -6.46875 -3.714844 -6.539062 -3.601562 -6.628906 L -3.285156 -6.902344 C -3.171875 -6.992188 -3.058594 -7.078125 -2.9375 -7.1875 C -2.824219 -7.273438 -2.710938 -7.363281 -2.617188 -7.460938 C -2.535156 -7.539062 -2.449219 -7.617188 -2.355469 -7.714844 C -2.273438 -7.792969 -2.1875 -7.871094 -2.113281 -7.929688 C -2.039062 -7.992188 -1.9375 -8.058594 -1.839844 -8.109375 C -1.550781 -8.328125 -1.238281 -8.488281 -0.925781 -8.597656 C -0.644531 -8.703125 -0.367188 -8.734375 -0.0585938 -8.6875 C 0.246094 -8.636719 0.515625 -8.554688 0.765625 -8.4375 L 1.132812 -8.265625 C 1.25 -8.210938 1.355469 -8.136719 1.472656 -8.082031 C 1.683594 -7.980469 1.859375 -7.851562 2.015625 -7.683594 C 2.347656 -7.386719 2.535156 -7.085938 2.621094 -6.761719 C 2.703125 -6.441406 2.703125 -6.085938 2.636719 -5.695312 C 2.621094 -5.558594 2.59375 -5.453125 2.546875 -5.359375 C 2.503906 -5.261719 2.46875 -5.136719 2.433594 -5.011719 C 2.394531 -4.886719 2.351562 -4.742188 2.289062 -4.605469 C 2.226562 -4.472656 2.160156 -4.335938 2.089844 -4.183594 L 1.832031 -3.640625 C 1.796875 -3.566406 1.734375 -3.476562 1.695312 -3.398438 C 1.660156 -3.324219 1.605469 -3.253906 1.566406 -3.175781 C 1.464844 -3.0625 1.382812 -2.933594 1.320312 -2.800781 C 1.246094 -2.691406 1.160156 -2.566406 1.070312 -2.421875 C 1.015625 -2.351562 0.96875 -2.304688 0.941406 -2.246094 C 0.914062 -2.1875 0.867188 -2.140625 0.800781 -2.101562 C 0.746094 -2.03125 0.699219 -1.984375 0.652344 -1.933594 C 0.605469 -1.886719 0.558594 -1.835938 0.492188 -1.796875 L -0.21875 -1.234375 L -0.703125 -1.464844 L -0.640625 -1.597656 C -0.621094 -1.636719 -0.59375 -1.648438 -0.542969 -1.648438 C -0.527344 -1.6875 -0.488281 -1.714844 -0.449219 -1.699219 Z M -0.449219 -1.699219 "/></g></g></g><g fill="#414141" fill-opacity="1"><g transform="translate(295.991717, 224.057893)"><g><path d="M -8.902344 -3.882812 C -9.003906 -3.914062 -9.09375 -3.917969 -9.144531 -3.890625 C -9.167969 -3.894531 -9.214844 -3.886719 -9.28125 -3.886719 C -9.34375 -3.90625 -9.410156 -3.902344 -9.484375 -3.878906 L -9.605469 -3.917969 L -9.628906 -5.015625 L -9.566406 -5.222656 L -0.109375 -2.351562 C -0.03125 -2.328125 0.0390625 -2.332031 0.121094 -2.304688 C 0.203125 -2.28125 0.269531 -2.28125 0.328125 -2.265625 C 0.425781 -2.28125 0.472656 -2.289062 0.484375 -2.328125 L 0.488281 -2.347656 L 0.695312 -2.289062 L 0.277344 -0.917969 L 0.0742188 -0.980469 L 0.0820312 -1 C 0.105469 -1.082031 0.0351562 -1.148438 -0.148438 -1.203125 C -0.203125 -1.242188 -0.257812 -1.28125 -0.320312 -1.300781 L -0.542969 -1.371094 L -8.488281 -3.777344 C -8.734375 -3.855469 -8.863281 -3.871094 -8.902344 -3.882812 Z M -11.171875 -5.082031 C -11.230469 -4.878906 -11.328125 -4.707031 -11.472656 -4.597656 C -11.648438 -4.535156 -11.84375 -4.550781 -12.046875 -4.613281 C -12.3125 -4.695312 -12.484375 -4.792969 -12.5625 -4.902344 C -12.621094 -5.011719 -12.625 -5.210938 -12.539062 -5.5 C -12.457031 -5.765625 -12.339844 -5.929688 -12.234375 -5.984375 C -12.128906 -6.042969 -11.925781 -6.046875 -11.640625 -5.960938 C -11.375 -5.882812 -11.207031 -5.765625 -11.152344 -5.65625 C -11.082031 -5.523438 -11.09375 -5.328125 -11.171875 -5.082031 Z M -11.171875 -5.082031 "/></g></g></g><g fill="#414141" fill-opacity="1"><g transform="translate(299.392809, 210.899809)"><g><path d="M 0.199219 -2.496094 C 0.148438 -2.460938 0.105469 -2.445312 0.0625 -2.453125 C 0.015625 -2.4375 -0.0273438 -2.425781 -0.117188 -2.417969 C -0.183594 -2.40625 -0.25 -2.394531 -0.335938 -2.40625 C -0.398438 -2.417969 -0.484375 -2.410156 -0.574219 -2.402344 L -0.847656 -2.445312 C -0.953125 -2.460938 -1.0625 -2.457031 -1.1875 -2.476562 C -1.3125 -2.496094 -1.445312 -2.496094 -1.570312 -2.515625 C -1.695312 -2.535156 -1.824219 -2.554688 -1.992188 -2.582031 L -9.792969 -3.808594 L -10.058594 -2.121094 L -10.164062 -2.140625 C -10.132812 -2.867188 -10.203125 -3.398438 -10.414062 -3.691406 C -10.617188 -4.046875 -11.023438 -4.347656 -11.632812 -4.617188 L -13.007812 -5.199219 L -12.976562 -5.390625 L -10.027344 -4.925781 L -9.480469 -8.40625 L -9.078125 -8.339844 L -9.625 -4.863281 L -1.640625 -3.585938 L -1.050781 -3.492188 C -0.964844 -3.480469 -0.878906 -3.488281 -0.8125 -3.476562 L -0.601562 -3.445312 C -0.34375 -3.445312 -0.167969 -3.460938 -0.0546875 -3.507812 C 0.0429688 -3.578125 0.128906 -3.695312 0.199219 -3.878906 L 0.226562 -4.046875 C 0.234375 -4.089844 0.265625 -4.148438 0.277344 -4.234375 C 0.289062 -4.296875 0.316406 -4.355469 0.332031 -4.441406 C 0.339844 -4.503906 0.355469 -4.589844 0.367188 -4.671875 L 0.449219 -5.179688 C 0.460938 -5.265625 0.472656 -5.328125 0.480469 -5.390625 C 0.492188 -5.453125 0.480469 -5.519531 0.488281 -5.582031 C 0.476562 -5.648438 0.46875 -5.714844 0.472656 -5.757812 L 0.496094 -5.90625 L 0.472656 -6.167969 C 0.460938 -6.214844 0.441406 -6.238281 0.449219 -6.28125 C 0.453125 -6.324219 0.457031 -6.34375 0.421875 -6.394531 L 0.324219 -6.601562 C 0.3125 -6.648438 0.292969 -6.671875 0.277344 -6.71875 C 0.28125 -6.738281 0.265625 -6.761719 0.230469 -6.8125 C 0.195312 -6.859375 0.144531 -6.957031 0.0742188 -7.054688 L 0.171875 -7.125 L 0.375 -6.769531 C 0.480469 -6.621094 0.566406 -6.480469 0.625 -6.316406 C 0.683594 -6.136719 0.746094 -5.976562 0.785156 -5.816406 C 0.820312 -5.769531 0.816406 -5.726562 0.808594 -5.683594 C 0.800781 -5.640625 0.8125 -5.574219 0.824219 -5.507812 C 0.835938 -5.441406 0.847656 -5.375 0.835938 -5.3125 C 0.824219 -5.25 0.835938 -5.183594 0.847656 -5.117188 C 0.851562 -4.855469 0.820312 -4.515625 0.753906 -4.09375 L 0.652344 -3.460938 C 0.640625 -3.378906 0.605469 -3.296875 0.59375 -3.210938 C 0.578125 -3.128906 0.546875 -3.066406 0.539062 -3.003906 C 0.457031 -2.757812 0.34375 -2.601562 0.199219 -2.496094 Z M 0.199219 -2.496094 "/></g></g></g><g fill="#414141" fill-opacity="1"><g transform="translate(301.412245, 193.091133)"><g><path d="M -6.949219 -2.136719 L -6.605469 -2.140625 L -6.433594 -2.144531 C -6.371094 -2.144531 -6.308594 -2.125 -6.242188 -2.125 C -6.179688 -2.128906 -6.113281 -2.128906 -6.070312 -2.128906 C -6.007812 -2.128906 -5.945312 -2.128906 -5.878906 -2.132812 C -5.792969 -2.132812 -5.730469 -2.113281 -5.667969 -2.113281 C -5.601562 -2.113281 -5.539062 -2.117188 -5.453125 -2.117188 C -5.027344 -2.121094 -4.558594 -2.128906 -4.085938 -2.160156 C -3.617188 -2.1875 -3.152344 -2.277344 -2.726562 -2.414062 C -2.300781 -2.546875 -1.917969 -2.746094 -1.582031 -3.007812 C -1.246094 -3.269531 -0.992188 -3.65625 -0.832031 -4.148438 C -0.667969 -4.726562 -0.613281 -5.347656 -0.625 -6.007812 L -0.632812 -6.671875 C -0.636719 -6.777344 -0.660156 -6.882812 -0.660156 -6.96875 L -0.664062 -7.246094 C -0.664062 -7.332031 -0.6875 -7.394531 -0.6875 -7.480469 L -0.691406 -7.714844 C -0.695312 -7.867188 -0.695312 -8.035156 -0.742188 -8.207031 C -0.789062 -8.375 -0.832031 -8.523438 -0.898438 -8.695312 C -0.988281 -8.886719 -1.074219 -9.011719 -1.140625 -9.074219 L -1.011719 -9.164062 C -0.96875 -9.097656 -0.925781 -9.035156 -0.882812 -8.992188 C -0.839844 -8.953125 -0.816406 -8.886719 -0.773438 -8.824219 C -0.621094 -8.65625 -0.511719 -8.464844 -0.421875 -8.253906 C -0.335938 -8.042969 -0.265625 -7.851562 -0.222656 -7.636719 C -0.199219 -7.554688 -0.199219 -7.488281 -0.195312 -7.402344 C -0.195312 -7.316406 -0.171875 -7.234375 -0.148438 -7.148438 C -0.128906 -7.0625 -0.105469 -6.957031 -0.101562 -6.871094 C -0.101562 -6.785156 -0.078125 -6.679688 -0.0546875 -6.574219 C -0.0078125 -6.191406 0.0195312 -5.699219 0.03125 -5.121094 C 0.0351562 -4.824219 0.0390625 -4.546875 0.0234375 -4.246094 C 0.00390625 -3.949219 -0.0351562 -3.648438 -0.113281 -3.371094 C -0.175781 -3.09375 -0.277344 -2.835938 -0.421875 -2.578125 C -0.546875 -2.316406 -0.734375 -2.101562 -0.988281 -1.90625 C -1.09375 -1.820312 -1.199219 -1.753906 -1.304688 -1.710938 C -1.410156 -1.644531 -1.539062 -1.578125 -1.667969 -1.511719 C -1.792969 -1.445312 -1.941406 -1.402344 -2.089844 -1.355469 C -2.238281 -1.3125 -2.386719 -1.265625 -2.558594 -1.222656 C -3.238281 -1.082031 -4.050781 -1.007812 -5.03125 -0.992188 L -5.820312 -0.980469 C -6.054688 -0.976562 -6.289062 -0.972656 -6.546875 -1.011719 C -7.445312 -1.082031 -8.148438 -1.199219 -8.707031 -1.40625 C -9.265625 -1.609375 -9.699219 -1.902344 -10.023438 -2.28125 C -10.328125 -2.664062 -10.546875 -3.171875 -10.664062 -3.765625 C -10.78125 -4.363281 -10.855469 -5.109375 -10.867188 -5.960938 L -10.871094 -6.175781 C -10.871094 -6.238281 -10.851562 -6.304688 -10.851562 -6.390625 C -10.816406 -6.6875 -10.777344 -6.96875 -10.714844 -7.179688 C -10.59375 -7.632812 -10.367188 -8.019531 -10.070312 -8.324219 C -9.753906 -8.625 -9.375 -8.824219 -8.90625 -8.917969 C -8.777344 -8.960938 -8.652344 -8.984375 -8.523438 -9.007812 C -8.375 -9.007812 -8.226562 -9.03125 -8.074219 -9.058594 C -7.90625 -9.082031 -7.757812 -9.105469 -7.585938 -9.105469 L -7.050781 -9.113281 Z M -8.765625 -2.449219 C -8.335938 -2.328125 -7.78125 -2.230469 -7.140625 -2.15625 L -7.421875 -8.105469 L -7.414062 -7.613281 C -7.417969 -7.808594 -7.441406 -7.933594 -7.527344 -7.996094 C -7.589844 -8.0625 -7.71875 -8.101562 -7.933594 -8.097656 C -8.082031 -8.097656 -8.253906 -8.070312 -8.445312 -8.070312 C -8.636719 -8.066406 -8.828125 -8.042969 -9.042969 -7.996094 C -9.234375 -7.949219 -9.425781 -7.882812 -9.59375 -7.816406 C -9.761719 -7.730469 -9.890625 -7.640625 -10.015625 -7.511719 C -10.144531 -7.402344 -10.226562 -7.253906 -10.308594 -7.082031 C -10.390625 -6.910156 -10.453125 -6.714844 -10.492188 -6.523438 C -10.53125 -6.332031 -10.550781 -6.136719 -10.546875 -5.945312 C -10.542969 -5.734375 -10.5625 -5.5625 -10.5625 -5.414062 L -10.554688 -5.027344 L -10.550781 -4.835938 C -10.550781 -4.792969 -10.53125 -4.730469 -10.527344 -4.664062 C -10.480469 -4.410156 -10.4375 -4.199219 -10.371094 -4.027344 C -10.257812 -3.601562 -10.058594 -3.285156 -9.757812 -3.035156 C -9.453125 -2.78125 -9.132812 -2.574219 -8.765625 -2.449219 Z M -8.765625 -2.449219 "/></g></g></g><g fill="#414141" fill-opacity="1"><g transform="translate(86.12483, 190.209767)"><g><path d="M -13.617188 -0.660156 C -13.808594 -0.652344 -13.910156 -0.582031 -13.90625 -0.496094 L -13.90625 -0.476562 L -14.121094 -0.46875 L -14.355469 -5.777344 L -14.367188 -6.074219 C -14.371094 -6.160156 -14.355469 -6.265625 -14.359375 -6.351562 C -14.332031 -6.738281 -14.304688 -7.082031 -14.25 -7.339844 C -14.148438 -7.941406 -13.957031 -8.421875 -13.675781 -8.777344 C -13.390625 -9.152344 -13.019531 -9.425781 -12.511719 -9.574219 C -12.070312 -9.722656 -11.457031 -9.835938 -10.644531 -9.871094 C -10.21875 -9.890625 -9.769531 -9.867188 -9.339844 -9.84375 C -8.914062 -9.796875 -8.5 -9.664062 -8.128906 -9.425781 C -7.796875 -9.226562 -7.527344 -8.9375 -7.339844 -8.5625 C -7.132812 -8.1875 -6.984375 -7.765625 -6.882812 -7.324219 C -6.777344 -6.878906 -6.691406 -6.433594 -6.652344 -5.988281 C -6.609375 -5.539062 -6.59375 -5.15625 -6.578125 -4.816406 L -6.460938 -2.171875 L -1.707031 -2.382812 C -1.578125 -2.386719 -1.453125 -2.414062 -1.34375 -2.417969 L -1.046875 -2.433594 C -0.960938 -2.4375 -0.878906 -2.460938 -0.8125 -2.464844 L -0.621094 -2.472656 C -0.410156 -2.523438 -0.328125 -2.570312 -0.328125 -2.613281 L -0.328125 -2.632812 L -0.117188 -2.644531 L -0.046875 -1.085938 L -0.261719 -1.078125 L -0.261719 -1.097656 C -0.265625 -1.183594 -0.351562 -1.222656 -0.542969 -1.214844 C -0.609375 -1.234375 -0.675781 -1.253906 -0.738281 -1.25 L -0.972656 -1.238281 L -13.210938 -0.699219 C -13.402344 -0.710938 -13.53125 -0.707031 -13.617188 -0.660156 Z M -6.945312 -5.847656 L -7.109375 -6.695312 C -7.234375 -7.136719 -7.402344 -7.492188 -7.625 -7.761719 C -7.851562 -8.007812 -8.09375 -8.210938 -8.398438 -8.34375 C -8.683594 -8.460938 -9.007812 -8.554688 -9.394531 -8.578125 C -9.757812 -8.605469 -10.164062 -8.632812 -10.589844 -8.613281 L -11.058594 -8.589844 C -11.207031 -8.585938 -11.355469 -8.558594 -11.507812 -8.550781 C -11.804688 -8.539062 -12.058594 -8.484375 -12.289062 -8.386719 C -12.734375 -8.28125 -13.085938 -8.074219 -13.375 -7.785156 C -13.660156 -7.496094 -13.859375 -7.144531 -13.925781 -6.757812 C -13.964844 -6.625 -13.980469 -6.519531 -13.996094 -6.410156 C -13.992188 -6.304688 -14.007812 -6.175781 -14.023438 -6.046875 C -14.039062 -5.917969 -14.054688 -5.769531 -14.046875 -5.617188 L -14.027344 -5.148438 L -13.882812 -1.84375 L -6.738281 -2.160156 L -6.855469 -4.804688 C -6.863281 -4.996094 -6.871094 -5.1875 -6.878906 -5.359375 C -6.886719 -5.527344 -6.914062 -5.675781 -6.945312 -5.847656 Z M -6.945312 -5.847656 "/></g></g></g><g fill="#414141" fill-opacity="1"><g transform="translate(86.121703, 171.45531)"><g><path d="M -6.484375 -3.285156 L -6.148438 -3.230469 L -5.976562 -3.207031 C -5.914062 -3.195312 -5.855469 -3.164062 -5.792969 -3.15625 C -5.726562 -3.144531 -5.664062 -3.136719 -5.621094 -3.128906 C -5.558594 -3.117188 -5.496094 -3.109375 -5.433594 -3.097656 C -5.347656 -3.085938 -5.289062 -3.054688 -5.226562 -3.042969 C -5.164062 -3.035156 -5.097656 -3.023438 -5.015625 -3.011719 C -4.59375 -2.945312 -4.128906 -2.871094 -3.660156 -2.820312 C -3.195312 -2.769531 -2.71875 -2.78125 -2.277344 -2.839844 C -1.835938 -2.902344 -1.425781 -3.03125 -1.046875 -3.230469 C -0.671875 -3.433594 -0.359375 -3.773438 -0.113281 -4.230469 C 0.144531 -4.773438 0.304688 -5.375 0.40625 -6.027344 L 0.507812 -6.683594 C 0.523438 -6.789062 0.519531 -6.894531 0.53125 -6.980469 L 0.574219 -7.253906 C 0.589844 -7.339844 0.578125 -7.40625 0.589844 -7.488281 L 0.628906 -7.722656 C 0.652344 -7.871094 0.675781 -8.039062 0.660156 -8.214844 C 0.644531 -8.386719 0.625 -8.542969 0.589844 -8.722656 C 0.535156 -8.925781 0.472656 -9.0625 0.417969 -9.136719 L 0.558594 -9.203125 C 0.589844 -9.132812 0.621094 -9.0625 0.65625 -9.011719 C 0.691406 -8.964844 0.703125 -8.898438 0.734375 -8.828125 C 0.859375 -8.636719 0.933594 -8.429688 0.984375 -8.207031 C 1.035156 -7.980469 1.070312 -7.78125 1.078125 -7.566406 C 1.085938 -7.476562 1.078125 -7.414062 1.0625 -7.328125 C 1.050781 -7.246094 1.058594 -7.15625 1.066406 -7.070312 C 1.074219 -6.980469 1.078125 -6.875 1.066406 -6.789062 C 1.050781 -6.703125 1.054688 -6.597656 1.058594 -6.488281 C 1.042969 -6.101562 0.988281 -5.613281 0.898438 -5.042969 C 0.851562 -4.75 0.808594 -4.472656 0.742188 -4.183594 C 0.675781 -3.890625 0.585938 -3.601562 0.460938 -3.339844 C 0.351562 -3.078125 0.207031 -2.839844 0.0195312 -2.609375 C -0.144531 -2.378906 -0.367188 -2.195312 -0.652344 -2.046875 C -0.769531 -1.980469 -0.886719 -1.933594 -0.996094 -1.90625 C -1.113281 -1.859375 -1.25 -1.816406 -1.386719 -1.773438 C -1.523438 -1.730469 -1.675781 -1.710938 -1.832031 -1.691406 C -1.984375 -1.671875 -2.136719 -1.652344 -2.3125 -1.636719 C -3.007812 -1.617188 -3.820312 -1.679688 -4.789062 -1.832031 L -5.570312 -1.953125 C -5.800781 -1.988281 -6.035156 -2.027344 -6.28125 -2.109375 C -7.152344 -2.332031 -7.828125 -2.566406 -8.34375 -2.863281 C -8.859375 -3.160156 -9.234375 -3.523438 -9.492188 -3.949219 C -9.726562 -4.375 -9.859375 -4.914062 -9.871094 -5.523438 C -9.882812 -6.128906 -9.832031 -6.878906 -9.699219 -7.722656 L -9.664062 -7.929688 C -9.65625 -7.996094 -9.625 -8.054688 -9.609375 -8.140625 C -9.523438 -8.425781 -9.4375 -8.695312 -9.339844 -8.894531 C -9.144531 -9.320312 -8.855469 -9.664062 -8.511719 -9.910156 C -8.148438 -10.15625 -7.742188 -10.285156 -7.261719 -10.296875 C -7.128906 -10.320312 -7 -10.320312 -6.871094 -10.324219 C -6.722656 -10.300781 -6.574219 -10.296875 -6.421875 -10.296875 C -6.25 -10.289062 -6.097656 -10.289062 -5.929688 -10.261719 L -5.402344 -10.179688 Z M -8.222656 -3.902344 C -7.820312 -3.710938 -7.289062 -3.519531 -6.671875 -3.335938 L -5.9375 -9.246094 L -6.015625 -8.761719 C -5.984375 -8.953125 -5.984375 -9.082031 -6.058594 -9.160156 C -6.113281 -9.230469 -6.234375 -9.292969 -6.445312 -9.328125 C -6.589844 -9.351562 -6.761719 -9.355469 -6.953125 -9.386719 C -7.144531 -9.414062 -7.335938 -9.425781 -7.554688 -9.414062 C -7.75 -9.402344 -7.949219 -9.367188 -8.128906 -9.332031 C -8.308594 -9.273438 -8.449219 -9.210938 -8.597656 -9.101562 C -8.738281 -9.019531 -8.847656 -8.882812 -8.957031 -8.726562 C -9.066406 -8.574219 -9.160156 -8.390625 -9.234375 -8.210938 C -9.304688 -8.027344 -9.355469 -7.839844 -9.386719 -7.648438 C -9.417969 -7.4375 -9.464844 -7.273438 -9.488281 -7.125 L -9.546875 -6.746094 L -9.578125 -6.558594 C -9.585938 -6.515625 -9.574219 -6.449219 -9.582031 -6.386719 C -9.582031 -6.125 -9.570312 -5.90625 -9.535156 -5.730469 C -9.496094 -5.292969 -9.355469 -4.945312 -9.101562 -4.644531 C -8.84375 -4.347656 -8.5625 -4.085938 -8.222656 -3.902344 Z M -8.222656 -3.902344 "/></g></g></g><g fill="#414141" fill-opacity="1"><g transform="translate(89.831523, 153.426442)"><g><path d="M -8.769531 -4.265625 C -8.871094 -4.300781 -8.9375 -4.300781 -8.984375 -4.296875 C -9.007812 -4.300781 -9.054688 -4.296875 -9.121094 -4.296875 C -9.160156 -4.3125 -9.230469 -4.3125 -9.304688 -4.292969 L -9.425781 -4.335938 L -9.457031 -5.273438 L -9.386719 -5.476562 L -8.0625 -5.125 C -8.191406 -5.394531 -8.316406 -5.6875 -8.417969 -6.039062 C -8.527344 -6.371094 -8.59375 -6.691406 -8.617188 -7.015625 C -8.640625 -7.136719 -8.640625 -7.273438 -8.636719 -7.40625 L -8.589844 -7.796875 C -8.558594 -8.011719 -8.5 -8.308594 -8.386719 -8.632812 L -8.203125 -9.15625 C -8.195312 -9.175781 -8.1875 -9.195312 -8.175781 -9.234375 C -8.160156 -9.277344 -8.171875 -9.304688 -8.160156 -9.34375 C -8.144531 -9.382812 -8.109375 -9.417969 -8.097656 -9.457031 C -8.082031 -9.496094 -8.046875 -9.53125 -8.035156 -9.570312 C -7.957031 -9.792969 -7.851562 -9.960938 -7.730469 -10.050781 C -7.652344 -10.136719 -7.542969 -10.191406 -7.429688 -10.195312 C -7.335938 -10.207031 -7.207031 -10.183594 -7.066406 -10.136719 C -6.863281 -10.0625 -6.757812 -9.980469 -6.71875 -9.898438 C -6.667969 -9.789062 -6.6875 -9.664062 -6.753906 -9.480469 C -6.808594 -9.320312 -6.894531 -9.148438 -7.003906 -8.960938 C -7.046875 -8.90625 -7.09375 -8.832031 -7.171875 -8.746094 C -7.210938 -8.691406 -7.261719 -8.621094 -7.335938 -8.53125 C -7.417969 -8.425781 -7.527344 -8.308594 -7.640625 -8.121094 C -7.722656 -8.011719 -7.832031 -7.824219 -7.917969 -7.585938 L -8.054688 -7.203125 C -8.097656 -7.082031 -8.109375 -6.972656 -8.144531 -6.871094 C -8.21875 -6.671875 -8.242188 -6.476562 -8.21875 -6.285156 C -8.210938 -5.921875 -8.128906 -5.507812 -7.941406 -5.082031 L -7.570312 -4.972656 L -7.5625 -4.992188 L -0.78125 -2.605469 C -0.660156 -2.5625 -0.53125 -2.539062 -0.429688 -2.503906 L -0.148438 -2.40625 C -0.0664062 -2.378906 0.0195312 -2.367188 0.078125 -2.347656 L 0.261719 -2.285156 C 0.476562 -2.253906 0.570312 -2.265625 0.585938 -2.304688 L 0.59375 -2.324219 L 0.792969 -2.253906 L 0.320312 -0.90625 L 0.117188 -0.976562 L 0.125 -0.996094 C 0.144531 -1.058594 0.078125 -1.125 -0.101562 -1.191406 C -0.15625 -1.230469 -0.207031 -1.273438 -0.269531 -1.292969 L -0.488281 -1.371094 L -8.460938 -4.179688 C -8.621094 -4.234375 -8.730469 -4.25 -8.769531 -4.265625 Z M -8.769531 -4.265625 "/></g></g></g><g fill="#414141" fill-opacity="1"><g transform="translate(95.622617, 138.941664)"><g><path d="M -0.320312 -1.726562 C -0.253906 -1.761719 -0.183594 -1.796875 -0.117188 -1.832031 L 0.078125 -1.917969 C 0.148438 -1.953125 0.21875 -1.984375 0.273438 -2.003906 C 0.332031 -2.019531 0.382812 -2.0625 0.453125 -2.097656 C 0.632812 -2.242188 0.800781 -2.367188 0.960938 -2.519531 C 1.128906 -2.644531 1.261719 -2.792969 1.402344 -2.957031 C 1.476562 -3.039062 1.527344 -3.132812 1.582031 -3.226562 C 1.632812 -3.316406 1.703125 -3.402344 1.785156 -3.5 C 1.867188 -3.601562 1.949219 -3.703125 2.011719 -3.816406 C 2.074219 -3.925781 2.136719 -4.039062 2.210938 -4.167969 C 2.273438 -4.277344 2.328125 -4.371094 2.378906 -4.464844 C 2.421875 -4.539062 2.457031 -4.640625 2.496094 -4.71875 C 2.640625 -5.054688 2.714844 -5.402344 2.722656 -5.765625 C 2.734375 -6.128906 2.585938 -6.433594 2.257812 -6.71875 C 2.191406 -6.777344 2.148438 -6.828125 2.085938 -6.886719 C 2.007812 -6.929688 1.945312 -6.992188 1.851562 -7.042969 C 1.761719 -7.097656 1.679688 -7.167969 1.585938 -7.21875 L 1.304688 -7.378906 C 1.066406 -7.515625 0.820312 -7.601562 0.59375 -7.632812 C 0.515625 -7.628906 0.449219 -7.640625 0.414062 -7.664062 C 0.367188 -7.664062 0.300781 -7.679688 0.242188 -7.660156 C 0.136719 -7.648438 0 -7.625 -0.136719 -7.558594 C -0.253906 -7.523438 -0.410156 -7.464844 -0.546875 -7.394531 C -0.683594 -7.328125 -0.832031 -7.238281 -0.992188 -7.132812 C -1.34375 -6.941406 -1.710938 -6.683594 -2.101562 -6.339844 C -2.242188 -6.222656 -2.359375 -6.140625 -2.460938 -6.050781 C -2.558594 -5.960938 -2.679688 -5.882812 -2.796875 -5.800781 L -3.429688 -5.375 C -3.539062 -5.3125 -3.636719 -5.269531 -3.71875 -5.21875 C -3.796875 -5.164062 -3.863281 -5.128906 -3.980469 -5.097656 C -4.078125 -5.054688 -4.167969 -5.03125 -4.253906 -5.007812 L -4.507812 -4.90625 C -4.863281 -4.835938 -5.171875 -4.816406 -5.429688 -4.835938 C -5.523438 -4.84375 -5.589844 -4.855469 -5.664062 -4.898438 C -5.738281 -4.941406 -5.804688 -4.953125 -5.890625 -4.976562 C -5.972656 -5 -6.039062 -5.011719 -6.113281 -5.054688 C -6.1875 -5.097656 -6.261719 -5.140625 -6.335938 -5.179688 C -6.449219 -5.242188 -6.558594 -5.308594 -6.671875 -5.371094 C -6.765625 -5.421875 -6.847656 -5.492188 -6.949219 -5.574219 C -7.03125 -5.644531 -7.113281 -5.71875 -7.1875 -5.757812 C -7.261719 -5.800781 -7.34375 -5.871094 -7.398438 -5.953125 C -7.640625 -6.214844 -7.796875 -6.5 -7.867188 -6.808594 C -7.921875 -7.230469 -7.871094 -7.667969 -7.707031 -8.089844 C -7.535156 -8.480469 -7.351562 -8.894531 -7.140625 -9.265625 L -6.992188 -9.523438 C -6.949219 -9.597656 -6.878906 -9.679688 -6.839844 -9.753906 C -6.742188 -9.921875 -6.613281 -10.070312 -6.441406 -10.195312 C -6.351562 -10.265625 -6.28125 -10.347656 -6.199219 -10.449219 C -6.101562 -10.539062 -6 -10.628906 -5.890625 -10.738281 C -5.679688 -10.9375 -5.410156 -11.152344 -5.070312 -11.402344 L -4.605469 -11.140625 L -4.691406 -10.992188 C -4.921875 -10.929688 -5.121094 -10.84375 -5.289062 -10.71875 C -5.664062 -10.441406 -6.015625 -10.125 -6.339844 -9.816406 C -6.367188 -9.808594 -6.425781 -9.742188 -6.539062 -9.636719 C -6.605469 -9.601562 -6.65625 -9.554688 -6.6875 -9.5 C -6.710938 -9.460938 -6.75 -9.4375 -6.792969 -9.359375 C -6.8125 -9.324219 -6.871094 -9.261719 -6.9375 -9.148438 L -7.09375 -8.871094 C -7.136719 -8.796875 -7.167969 -8.691406 -7.210938 -8.617188 C -7.316406 -8.433594 -7.386719 -8.226562 -7.425781 -7.980469 C -7.476562 -7.714844 -7.5 -7.503906 -7.449219 -7.332031 C -7.417969 -7.042969 -7.269531 -6.785156 -6.992188 -6.582031 C -6.714844 -6.375 -6.464844 -6.210938 -6.242188 -6.082031 C -6.167969 -6.042969 -6.113281 -6.011719 -6.074219 -5.988281 C -6.019531 -5.957031 -5.953125 -5.945312 -5.886719 -5.933594 C -5.804688 -5.910156 -5.738281 -5.894531 -5.699219 -5.875 C -5.644531 -5.84375 -5.578125 -5.828125 -5.5 -5.835938 C -5.359375 -5.828125 -5.234375 -5.832031 -5.097656 -5.851562 C -4.972656 -5.855469 -4.839844 -5.878906 -4.683594 -5.9375 C -4.382812 -6.035156 -4.058594 -6.21875 -3.683594 -6.449219 C -3.59375 -6.519531 -3.503906 -6.59375 -3.414062 -6.664062 C -3.324219 -6.738281 -3.214844 -6.796875 -3.097656 -6.878906 L -2.757812 -7.128906 C -2.640625 -7.207031 -2.519531 -7.289062 -2.390625 -7.386719 C -2.273438 -7.464844 -2.152344 -7.546875 -2.054688 -7.636719 C -1.964844 -7.707031 -1.875 -7.78125 -1.773438 -7.871094 C -1.683594 -7.941406 -1.59375 -8.015625 -1.515625 -8.066406 C -1.4375 -8.121094 -1.328125 -8.183594 -1.230469 -8.226562 C -0.925781 -8.417969 -0.601562 -8.554688 -0.28125 -8.644531 C 0.0078125 -8.726562 0.285156 -8.738281 0.589844 -8.667969 C 0.890625 -8.59375 1.152344 -8.492188 1.394531 -8.355469 L 1.746094 -8.15625 C 1.859375 -8.09375 1.960938 -8.011719 2.070312 -7.949219 C 2.277344 -7.835938 2.441406 -7.691406 2.585938 -7.511719 C 2.894531 -7.191406 3.058594 -6.875 3.117188 -6.546875 C 3.175781 -6.21875 3.148438 -5.867188 3.054688 -5.480469 C 3.027344 -5.347656 2.992188 -5.246094 2.941406 -5.152344 C 2.886719 -5.058594 2.84375 -4.9375 2.800781 -4.816406 C 2.753906 -4.695312 2.699219 -4.554688 2.625 -4.421875 C 2.550781 -4.292969 2.480469 -4.164062 2.394531 -4.015625 L 2.101562 -3.496094 C 2.058594 -3.421875 1.988281 -3.339844 1.945312 -3.265625 C 1.902344 -3.191406 1.84375 -3.125 1.800781 -3.050781 C 1.691406 -2.941406 1.597656 -2.824219 1.523438 -2.691406 C 1.441406 -2.59375 1.351562 -2.472656 1.246094 -2.335938 C 1.1875 -2.269531 1.136719 -2.226562 1.105469 -2.167969 C 1.074219 -2.113281 1.023438 -2.070312 0.957031 -2.035156 C 0.894531 -1.96875 0.84375 -1.925781 0.792969 -1.878906 C 0.746094 -1.835938 0.695312 -1.789062 0.625 -1.753906 L -0.125 -1.25 L -0.589844 -1.511719 L -0.519531 -1.640625 C -0.496094 -1.679688 -0.46875 -1.6875 -0.417969 -1.683594 C -0.398438 -1.722656 -0.359375 -1.75 -0.320312 -1.726562 Z M -0.320312 -1.726562 "/></g></g></g><g fill="#414141" fill-opacity="1"><g transform="translate(104.558476, 124.448014)"><g><path d="M 2.269531 -2.832031 C 1.71875 -2.492188 1.144531 -2.289062 0.542969 -2.214844 C 0.164062 -2.203125 -0.214844 -2.253906 -0.558594 -2.382812 C -0.914062 -2.492188 -1.257812 -2.652344 -1.601562 -2.839844 C -1.949219 -3.027344 -2.265625 -3.246094 -2.570312 -3.484375 C -2.875 -3.71875 -3.148438 -3.957031 -3.421875 -4.195312 C -4.144531 -4.828125 -4.730469 -5.421875 -5.148438 -5.984375 C -5.578125 -6.527344 -5.832031 -7.117188 -5.917969 -7.699219 C -5.984375 -8.269531 -5.890625 -8.867188 -5.601562 -9.523438 C -5.300781 -10.164062 -4.804688 -10.890625 -4.105469 -11.695312 L -3.628906 -12.246094 C -3.488281 -12.40625 -3.316406 -12.566406 -3.160156 -12.714844 C -2.988281 -12.847656 -2.847656 -12.980469 -2.703125 -13.109375 C -2.546875 -13.226562 -2.402344 -13.328125 -2.257812 -13.429688 C -1.695312 -13.816406 -1.117188 -14.019531 -0.53125 -14.046875 C -0.230469 -14.066406 0.0585938 -14.042969 0.335938 -13.96875 C 0.613281 -13.898438 0.878906 -13.78125 1.160156 -13.648438 C 1.441406 -13.515625 1.726562 -13.355469 1.996094 -13.175781 C 2.265625 -13 2.519531 -12.804688 2.777344 -12.609375 C 3.015625 -12.398438 3.242188 -12.234375 3.433594 -12.066406 C 4.175781 -11.421875 4.761719 -10.796875 5.191406 -10.25 C 5.609375 -9.691406 5.875 -9.117188 5.945312 -8.546875 C 6.015625 -7.976562 5.90625 -7.367188 5.601562 -6.722656 C 5.3125 -6.070312 4.804688 -5.351562 4.101562 -4.546875 C 3.457031 -3.808594 2.847656 -3.238281 2.269531 -2.832031 Z M 3.925781 -4.703125 C 4.515625 -5.378906 4.898438 -5.980469 5.070312 -6.535156 C 5.242188 -7.09375 5.253906 -7.621094 5.097656 -8.125 C 4.941406 -8.628906 4.648438 -9.140625 4.222656 -9.625 C 3.796875 -10.109375 3.261719 -10.632812 2.648438 -11.164062 C 2.4375 -11.347656 2.183594 -11.539062 1.894531 -11.792969 C 1.589844 -12.03125 1.273438 -12.25 0.957031 -12.46875 C 0.625 -12.671875 0.292969 -12.847656 -0.0351562 -12.992188 C -0.359375 -13.136719 -0.683594 -13.21875 -0.988281 -13.226562 C -1.261719 -13.238281 -1.5 -13.222656 -1.722656 -13.164062 C -1.933594 -13.117188 -2.125 -13.027344 -2.328125 -12.925781 C -2.546875 -12.804688 -2.75 -12.667969 -2.9375 -12.519531 C -3.136719 -12.355469 -3.304688 -12.191406 -3.476562 -12.027344 C -3.644531 -11.835938 -3.800781 -11.6875 -3.925781 -11.542969 C -4.207031 -11.222656 -4.46875 -10.855469 -4.730469 -10.460938 C -4.988281 -10.0625 -5.15625 -9.644531 -5.21875 -9.214844 C -5.28125 -8.816406 -5.242188 -8.441406 -5.078125 -8.046875 C -4.914062 -7.648438 -4.707031 -7.269531 -4.425781 -6.910156 C -4.144531 -6.550781 -3.847656 -6.207031 -3.523438 -5.898438 C -3.183594 -5.574219 -2.894531 -5.320312 -2.636719 -5.097656 C -2.121094 -4.648438 -1.5625 -4.21875 -0.957031 -3.804688 C -0.355469 -3.394531 0.296875 -3.136719 1 -3.035156 C 1.636719 -3.015625 2.183594 -3.191406 2.644531 -3.527344 C 3.105469 -3.859375 3.535156 -4.253906 3.925781 -4.703125 Z M 3.925781 -4.703125 "/></g></g></g><g fill="#414141" fill-opacity="1"><g transform="translate(118.618924, 109.726897)"><g><path d="M -5.449219 -8.828125 L -4.835938 -9.714844 L -4.667969 -9.84375 L -3.871094 -8.789062 C -3.773438 -8.941406 -3.691406 -9.082031 -3.609375 -9.222656 C -3.546875 -9.351562 -3.464844 -9.492188 -3.402344 -9.621094 C -3.339844 -9.75 -3.257812 -9.890625 -3.179688 -10.003906 C -3.105469 -10.113281 -3.046875 -10.210938 -2.96875 -10.324219 C -2.890625 -10.433594 -2.832031 -10.53125 -2.773438 -10.628906 C -2.714844 -10.730469 -2.640625 -10.808594 -2.582031 -10.910156 C -2.523438 -11.007812 -2.449219 -11.085938 -2.40625 -11.171875 L -2.253906 -11.394531 C -2.15625 -11.550781 -2.0625 -11.671875 -1.953125 -11.808594 C -1.894531 -11.878906 -1.859375 -11.933594 -1.808594 -11.972656 C -1.753906 -12.011719 -1.71875 -12.066406 -1.664062 -12.136719 C -1.515625 -12.296875 -1.355469 -12.472656 -1.152344 -12.628906 L -0.777344 -12.910156 C -0.640625 -13.011719 -0.523438 -13.074219 -0.457031 -13.125 C -0.238281 -13.261719 -0.0585938 -13.34375 0.128906 -13.378906 C 0.480469 -13.511719 0.800781 -13.511719 1.105469 -13.390625 C 1.394531 -13.289062 1.714844 -13.078125 2.046875 -12.710938 C 2.222656 -12.550781 2.390625 -12.359375 2.570312 -12.121094 C 2.660156 -12 2.769531 -11.894531 2.859375 -11.773438 L 3.167969 -11.363281 L 6.917969 -6.386719 C 6.96875 -6.320312 7.039062 -6.265625 7.074219 -6.214844 L 7.191406 -6.058594 C 7.355469 -5.914062 7.4375 -5.871094 7.472656 -5.898438 L 7.507812 -5.925781 L 7.636719 -5.753906 L 6.476562 -4.878906 L 6.347656 -5.050781 L 6.382812 -5.078125 C 6.433594 -5.113281 6.417969 -5.210938 6.300781 -5.363281 C 6.277344 -5.425781 6.257812 -5.492188 6.21875 -5.542969 L 6.078125 -5.730469 L 2.378906 -10.636719 C 2.046875 -11.082031 1.734375 -11.460938 1.46875 -11.742188 C 1.1875 -12.039062 0.925781 -12.214844 0.675781 -12.292969 C 0.414062 -12.390625 0.109375 -12.375 -0.214844 -12.238281 C -0.503906 -12.125 -0.902344 -11.90625 -1.378906 -11.546875 L -1.738281 -11.277344 L -1.90625 -11.148438 C -1.976562 -11.097656 -2.015625 -11.042969 -2.070312 -10.972656 C -2.136719 -10.921875 -2.175781 -10.867188 -2.226562 -10.828125 C -2.277344 -10.789062 -2.316406 -10.734375 -2.367188 -10.695312 C -2.4375 -10.644531 -2.472656 -10.589844 -2.523438 -10.550781 C -2.582031 -10.480469 -2.617188 -10.425781 -2.675781 -10.355469 C -2.785156 -10.21875 -2.890625 -10.113281 -2.96875 -10.003906 C -3.0625 -9.878906 -3.140625 -9.738281 -3.21875 -9.625 C -3.40625 -9.378906 -3.601562 -9.070312 -3.804688 -8.703125 L 0.792969 -2.601562 C 0.871094 -2.5 0.964844 -2.410156 1.027344 -2.324219 L 1.207031 -2.085938 C 1.257812 -2.015625 1.328125 -1.960938 1.367188 -1.910156 L 1.480469 -1.757812 C 1.644531 -1.613281 1.730469 -1.570312 1.761719 -1.597656 L 1.78125 -1.609375 L 1.910156 -1.4375 L 0.765625 -0.578125 L 0.636719 -0.75 L 0.65625 -0.761719 C 0.707031 -0.800781 0.6875 -0.894531 0.574219 -1.046875 C 0.550781 -1.109375 0.53125 -1.175781 0.492188 -1.226562 L 0.351562 -1.414062 L -4.734375 -8.164062 C -4.835938 -8.300781 -4.917969 -8.371094 -4.945312 -8.40625 C -5.007812 -8.492188 -5.0625 -8.53125 -5.105469 -8.550781 C -5.121094 -8.566406 -5.164062 -8.589844 -5.21875 -8.628906 C -5.242188 -8.660156 -5.300781 -8.699219 -5.371094 -8.726562 Z M -5.449219 -8.828125 "/></g></g></g><g fill="#414141" fill-opacity="1"><g transform="translate(133.800866, 99.287322)"><g><path d="M 2.34375 -1.03125 C 2.238281 -1.003906 2.152344 -0.988281 2.078125 -0.949219 C 2 -0.914062 1.914062 -0.894531 1.828125 -0.878906 C 1.5 -0.816406 1.214844 -0.820312 0.996094 -0.882812 C 0.664062 -1.03125 0.410156 -1.214844 0.242188 -1.464844 C 0.0546875 -1.707031 -0.101562 -1.988281 -0.25 -2.292969 C -0.417969 -2.640625 -0.527344 -2.96875 -0.597656 -3.3125 C -0.660156 -3.636719 -0.59375 -4 -0.417969 -4.367188 C -0.203125 -4.757812 0.109375 -5.144531 0.515625 -5.480469 C 0.921875 -5.816406 1.308594 -6.097656 1.703125 -6.359375 L 3.789062 -7.738281 L 2.667969 -10.066406 C 2.234375 -10.96875 1.832031 -11.511719 1.472656 -11.71875 C 1.125 -11.953125 0.636719 -11.929688 0 -11.625 C -0.304688 -11.476562 -0.566406 -11.328125 -0.777344 -11.179688 C -0.992188 -11.03125 -1.175781 -10.871094 -1.300781 -10.691406 C -1.449219 -10.503906 -1.535156 -10.296875 -1.617188 -10.066406 C -1.6875 -9.820312 -1.710938 -9.523438 -1.734375 -9.179688 L -2.699219 -8.71875 L -2.703125 -8.976562 C -2.691406 -9.054688 -2.679688 -9.128906 -2.679688 -9.226562 C -2.667969 -9.445312 -2.605469 -9.664062 -2.507812 -9.898438 C -2.398438 -10.117188 -2.261719 -10.324219 -2.117188 -10.515625 C -1.929688 -10.769531 -1.648438 -11.023438 -1.265625 -11.253906 C -1.089844 -11.386719 -0.886719 -11.507812 -0.65625 -11.617188 C -0.542969 -11.671875 -0.433594 -11.746094 -0.320312 -11.804688 L 0.0859375 -11.996094 C 0.585938 -12.238281 0.976562 -12.355469 1.285156 -12.40625 C 1.667969 -12.496094 1.972656 -12.453125 2.226562 -12.316406 C 2.398438 -12.257812 2.550781 -12.140625 2.71875 -11.984375 C 2.867188 -11.820312 3.019531 -11.65625 3.160156 -11.460938 C 3.300781 -11.269531 3.417969 -11.066406 3.523438 -10.855469 C 3.625 -10.644531 3.726562 -10.480469 3.800781 -10.324219 L 6.441406 -4.824219 C 6.628906 -4.4375 6.785156 -4.160156 6.964844 -3.984375 C 7.144531 -3.859375 7.390625 -3.882812 7.738281 -4.050781 C 7.96875 -4.160156 8.152344 -4.273438 8.257812 -4.394531 C 8.289062 -4.433594 8.296875 -4.460938 8.328125 -4.5 C 8.335938 -4.527344 8.367188 -4.5625 8.386719 -4.621094 C 8.40625 -4.679688 8.425781 -4.734375 8.445312 -4.792969 C 8.46875 -4.847656 8.507812 -4.914062 8.527344 -4.972656 L 8.6875 -4.882812 C 8.667969 -4.828125 8.648438 -4.769531 8.644531 -4.722656 C 8.625 -4.664062 8.617188 -4.636719 8.585938 -4.597656 C 8.566406 -4.542969 8.519531 -4.449219 8.476562 -4.332031 L 8.359375 -4.136719 C 8.339844 -4.078125 8.300781 -4.011719 8.242188 -3.9375 C 8.203125 -3.871094 8.15625 -3.824219 8.105469 -3.777344 C 8.039062 -3.71875 7.972656 -3.664062 7.902344 -3.609375 L 7.789062 -3.550781 C 7.75 -3.535156 7.699219 -3.488281 7.644531 -3.460938 C 7.585938 -3.429688 7.535156 -3.382812 7.480469 -3.355469 C 7.421875 -3.328125 7.363281 -3.300781 7.304688 -3.273438 C 7.035156 -3.144531 6.816406 -3.0625 6.644531 -3.027344 C 6.472656 -2.992188 6.339844 -3.019531 6.207031 -3.101562 C 6.101562 -3.167969 5.988281 -3.304688 5.859375 -3.476562 C 5.832031 -3.535156 5.804688 -3.59375 5.785156 -3.632812 C 5.765625 -3.671875 5.738281 -3.726562 5.710938 -3.785156 C 5.683594 -3.84375 5.636719 -3.890625 5.609375 -3.949219 C 5.582031 -4.007812 5.550781 -4.066406 5.515625 -4.140625 C 5.285156 -3.390625 4.96875 -2.8125 4.554688 -2.402344 C 4.144531 -1.96875 3.605469 -1.613281 2.933594 -1.289062 L 2.644531 -1.152344 C 2.546875 -1.105469 2.449219 -1.058594 2.34375 -1.03125 Z M 0.5625 -3.015625 C 0.859375 -2.402344 1.1875 -2.015625 1.566406 -1.867188 C 1.957031 -1.746094 2.472656 -1.851562 3.109375 -2.15625 C 3.644531 -2.414062 4.128906 -2.695312 4.503906 -2.992188 C 4.882812 -3.292969 5.183594 -3.746094 5.421875 -4.335938 L 3.898438 -7.507812 L 1.851562 -6.050781 C 1.753906 -5.957031 1.667969 -5.890625 1.570312 -5.84375 C 1.476562 -5.800781 1.386719 -5.734375 1.320312 -5.679688 C 1.261719 -5.601562 1.175781 -5.535156 1.109375 -5.480469 C 1.039062 -5.425781 0.972656 -5.367188 0.914062 -5.292969 C 0.796875 -5.191406 0.710938 -5.078125 0.632812 -4.945312 C 0.574219 -4.867188 0.523438 -4.820312 0.503906 -4.765625 C 0.484375 -4.707031 0.445312 -4.640625 0.40625 -4.574219 C 0.304688 -4.289062 0.265625 -4.035156 0.316406 -3.773438 C 0.351562 -3.507812 0.441406 -3.265625 0.5625 -3.015625 Z M 0.5625 -3.015625 "/></g></g></g><g fill="#414141" fill-opacity="1"><g transform="translate(150.896851, 92.130848)"><g><path d="M -2.953125 -14.078125 C -2.984375 -14.183594 -3.027344 -14.257812 -3.082031 -14.285156 C -3.085938 -14.308594 -3.117188 -14.34375 -3.15625 -14.398438 C -3.175781 -14.460938 -3.214844 -14.515625 -3.273438 -14.5625 L -3.308594 -14.6875 L -2.402344 -15.308594 L -2.195312 -15.367188 L 1.90625 -1.382812 C 1.929688 -1.300781 1.96875 -1.246094 1.992188 -1.164062 C 2.019531 -1.082031 2.054688 -1.027344 2.074219 -0.964844 C 2.140625 -0.894531 2.171875 -0.859375 2.214844 -0.871094 L 2.234375 -0.878906 L 2.292969 -0.671875 L 0.921875 -0.269531 L 0.863281 -0.476562 L 0.882812 -0.480469 C 0.964844 -0.503906 0.980469 -0.597656 0.925781 -0.785156 C 0.929688 -0.851562 0.929688 -0.917969 0.914062 -0.980469 L 0.847656 -1.203125 L -2.8125 -13.675781 C -2.882812 -13.921875 -2.941406 -14.039062 -2.953125 -14.078125 Z M -2.953125 -14.078125 "/></g></g></g></svg>